<mxfile host="app.diagrams.net" agent="Mozilla/5.0 (Macintosh; Intel Mac OS X 10_15_7) AppleWebKit/605.1.15 (KHTML, like Gecko) Version/26.0 Safari/605.1.15" version="28.2.5">
  <diagram name="Page-1" id="NrQ-u9TCqVZ6xqmKwhPW">
    <mxGraphModel dx="1426" dy="768" grid="1" gridSize="10" guides="1" tooltips="1" connect="1" arrows="1" fold="1" page="1" pageScale="1" pageWidth="827" pageHeight="1169" math="0" shadow="0">
      <root>
        <mxCell id="0" />
        <mxCell id="1" parent="0" />
        <mxCell id="fZsD1dLDlV_f4URAzqzy-7" style="edgeStyle=orthogonalEdgeStyle;rounded=0;orthogonalLoop=1;jettySize=auto;html=1;exitX=1;exitY=0.5;exitDx=0;exitDy=0;entryX=0;entryY=0.5;entryDx=0;entryDy=0;curved=1;" edge="1" parent="1" source="fZsD1dLDlV_f4URAzqzy-1" target="fZsD1dLDlV_f4URAzqzy-2">
          <mxGeometry relative="1" as="geometry" />
        </mxCell>
        <mxCell id="fZsD1dLDlV_f4URAzqzy-1" value="What is needed" style="rounded=1;whiteSpace=wrap;html=1;" vertex="1" parent="1">
          <mxGeometry x="64" y="160" width="120" height="60" as="geometry" />
        </mxCell>
        <mxCell id="fZsD1dLDlV_f4URAzqzy-8" style="edgeStyle=orthogonalEdgeStyle;rounded=0;orthogonalLoop=1;jettySize=auto;html=1;exitX=1;exitY=0.5;exitDx=0;exitDy=0;entryX=0;entryY=0.5;entryDx=0;entryDy=0;curved=1;" edge="1" parent="1" source="fZsD1dLDlV_f4URAzqzy-2" target="fZsD1dLDlV_f4URAzqzy-3">
          <mxGeometry relative="1" as="geometry" />
        </mxCell>
        <mxCell id="fZsD1dLDlV_f4URAzqzy-2" value="Analysis" style="rounded=1;whiteSpace=wrap;html=1;" vertex="1" parent="1">
          <mxGeometry x="254" y="200" width="120" height="60" as="geometry" />
        </mxCell>
        <mxCell id="fZsD1dLDlV_f4URAzqzy-9" style="edgeStyle=orthogonalEdgeStyle;rounded=0;orthogonalLoop=1;jettySize=auto;html=1;exitX=1;exitY=0.5;exitDx=0;exitDy=0;entryX=0;entryY=0.5;entryDx=0;entryDy=0;curved=1;" edge="1" parent="1" source="fZsD1dLDlV_f4URAzqzy-3" target="fZsD1dLDlV_f4URAzqzy-4">
          <mxGeometry relative="1" as="geometry" />
        </mxCell>
        <mxCell id="fZsD1dLDlV_f4URAzqzy-3" value="Design" style="rounded=1;whiteSpace=wrap;html=1;" vertex="1" parent="1">
          <mxGeometry x="444" y="240" width="120" height="60" as="geometry" />
        </mxCell>
        <mxCell id="fZsD1dLDlV_f4URAzqzy-4" value="Implement and deploy" style="rounded=1;whiteSpace=wrap;html=1;" vertex="1" parent="1">
          <mxGeometry x="644" y="290" width="120" height="60" as="geometry" />
        </mxCell>
        <mxCell id="fZsD1dLDlV_f4URAzqzy-10" style="edgeStyle=orthogonalEdgeStyle;rounded=0;orthogonalLoop=1;jettySize=auto;html=1;exitX=0;exitY=0.5;exitDx=0;exitDy=0;exitPerimeter=0;entryX=0.5;entryY=1;entryDx=0;entryDy=0;curved=1;" edge="1" parent="1" source="fZsD1dLDlV_f4URAzqzy-5" target="fZsD1dLDlV_f4URAzqzy-2">
          <mxGeometry relative="1" as="geometry" />
        </mxCell>
        <mxCell id="fZsD1dLDlV_f4URAzqzy-5" value="Prototype" style="verticalLabelPosition=middle;verticalAlign=middle;html=1;shape=mxgraph.basic.plaque;dx=6;whiteSpace=wrap;labelPosition=center;align=center;" vertex="1" parent="1">
          <mxGeometry x="364" y="350" width="120" height="40" as="geometry" />
        </mxCell>
        <mxCell id="fZsD1dLDlV_f4URAzqzy-11" style="edgeStyle=orthogonalEdgeStyle;rounded=0;orthogonalLoop=1;jettySize=auto;html=1;exitX=1;exitY=0.5;exitDx=0;exitDy=0;entryX=1;entryY=0.5;entryDx=0;entryDy=0;entryPerimeter=0;curved=1;" edge="1" parent="1" source="fZsD1dLDlV_f4URAzqzy-3" target="fZsD1dLDlV_f4URAzqzy-5">
          <mxGeometry relative="1" as="geometry" />
        </mxCell>
        <mxCell id="fZsD1dLDlV_f4URAzqzy-12" value="Interviews&lt;div&gt;&lt;br&gt;&lt;/div&gt;&lt;div&gt;what is there&lt;/div&gt;&lt;div&gt;vs&lt;/div&gt;&lt;div&gt;what is needed&lt;/div&gt;" style="text;html=1;align=center;verticalAlign=middle;resizable=0;points=[];autosize=1;strokeColor=none;fillColor=none;" vertex="1" parent="1">
          <mxGeometry x="74" y="240" width="100" height="80" as="geometry" />
        </mxCell>
        <mxCell id="fZsD1dLDlV_f4URAzqzy-13" value="Scenario&amp;nbsp;&lt;div&gt;Task analysis&lt;/div&gt;" style="text;html=1;align=center;verticalAlign=middle;resizable=0;points=[];autosize=1;strokeColor=none;fillColor=none;" vertex="1" parent="1">
          <mxGeometry x="204" y="150" width="90" height="40" as="geometry" />
        </mxCell>
        <mxCell id="fZsD1dLDlV_f4URAzqzy-14" value="Evaluation&lt;div&gt;Heuristics&lt;/div&gt;" style="text;html=1;align=center;verticalAlign=middle;resizable=0;points=[];autosize=1;strokeColor=none;fillColor=none;" vertex="1" parent="1">
          <mxGeometry x="274" y="380" width="80" height="40" as="geometry" />
        </mxCell>
        <mxCell id="fZsD1dLDlV_f4URAzqzy-15" value="Dialog&lt;div&gt;notations&lt;/div&gt;" style="text;html=1;align=center;verticalAlign=middle;resizable=0;points=[];autosize=1;strokeColor=none;fillColor=none;" vertex="1" parent="1">
          <mxGeometry x="374" y="290" width="70" height="40" as="geometry" />
        </mxCell>
        <mxCell id="fZsD1dLDlV_f4URAzqzy-16" value="Guidelines&lt;div&gt;Principles&lt;/div&gt;" style="text;html=1;align=center;verticalAlign=middle;resizable=0;points=[];autosize=1;strokeColor=none;fillColor=none;" vertex="1" parent="1">
          <mxGeometry x="464" y="190" width="80" height="40" as="geometry" />
        </mxCell>
        <mxCell id="fZsD1dLDlV_f4URAzqzy-17" value="Precise&lt;div&gt;specifications&lt;/div&gt;" style="text;html=1;align=center;verticalAlign=middle;resizable=0;points=[];autosize=1;strokeColor=none;fillColor=none;" vertex="1" parent="1">
          <mxGeometry x="574" y="230" width="100" height="40" as="geometry" />
        </mxCell>
        <mxCell id="fZsD1dLDlV_f4URAzqzy-18" value="Architectures&lt;div&gt;Documentations&lt;/div&gt;&lt;div&gt;Help&lt;/div&gt;" style="text;html=1;align=center;verticalAlign=middle;resizable=0;points=[];autosize=1;strokeColor=none;fillColor=none;" vertex="1" parent="1">
          <mxGeometry x="649" y="360" width="110" height="60" as="geometry" />
        </mxCell>
      </root>
    </mxGraphModel>
  </diagram>
</mxfile>
